<?xml version="1.0" encoding="utf-8"?>
<!-- Generator: Adobe Illustrator 23.0.6, SVG Export Plug-In . SVG Version: 6.00 Build 0)  -->
<svg version="1.1" id="Capa_1" xmlns="http://www.w3.org/2000/svg" xmlns:xlink="http://www.w3.org/1999/xlink" x="0px" y="0px"
	 viewBox="0 0 627 236.6" style="enable-background:new 0 0 627 236.6;" xml:space="preserve">
<style type="text/css">
	.st0{fill:#D9A97E;}
</style>
<g>
	<g>
		<path class="st0" d="M197,225.5c-1.1-9.5-11.7-10.6-17.8-10c-6.5-24.6,16.2-61.2,17.6-69.8c1.4-9.3-6.7-63.5-7.5-90.9
			c-0.9-28.2-41.8-59.3-48.6-54.3c-6.8,7.5,9.7,17.6,1.1,26.2c-8.4,8.4-10.6,14-16.8,23.5c-16,24.3,27.3,24.6,27.3,24.6
			s-33.9,25.1-41.4,37.8c-6.9,11.7-9.9,24.7-18.2,35.7c-19.2,25-14.9,68.7-14.9,68.7s-36.2-11.8-16.3-53.1
			C76.6,132.4,84.1,86,50,97.9c-13.2,4.6,2.9,14.3,5.7,17.4c9.3,10.4,1.4,27.9-4.2,38c-15,27.1-20.5,55.5,11.2,73
			c14.1,7.8,33.1,9.7,52.2,10l48.6,0.1C179.6,237.3,197.7,234.3,197,225.5z"/>
	</g>
</g>
<g>
	<path class="st0" d="M250.7,66c-2.1-0.3-3.9-1-5.4-2.3c-1.8-4.1-2.8-8.7-2.9-13.8c-0.1-5.1-0.3-9.6-0.6-13.5s1.1-6.3,4.1-7.2
		c3-0.9,26.3-0.5,70,1.2l-0.8-5.8c0.3-2.1,1-3.9,2.3-5.4c1.8-1.5,4.1-2.2,6.9-1.9l3.9,1.9c2.1,3.3,3,7.1,2.7,11.2h69.5
		c5,0.1,6.9,3.6,5.8,10.4c-2.1,10.1-3.9,16.7-5.4,19.8c-1.8,1.5-4.1,2.2-6.9,1.9l-3.9-1.9c-1.3-1.8-2.1-3.9-2.3-6.4l1.5-8.9
		l-132.1-0.8l1.2,15.2l-1.9,3.9C254.6,65,252.7,65.7,250.7,66z M392.4,190.9c-5.9-1.5-11.2-4.6-15.8-9.2c-1.5-1.8-2.2-4.1-1.9-6.9
		l1.9-3.9c1.8-1.5,4.1-2.2,6.9-1.9l3.5,1.2c1.8-11.2,2.6-19.1,2.3-23.7l-129-0.8l0.4,45.2l-1.9,3.9c-1.8,1.5-4.1,2.2-6.9,1.9
		l-3.9-1.9c-2.1-4.9-3.1-11.3-3.1-19.3s-0.1-15.6-0.4-22.9c-0.3-7.3-0.3-12.5-0.2-15.7c0.1-3.1,1.5-4.9,4.2-5.3
		c2.7-0.4,10.5-0.7,23.3-1l-1.2-37c-0.1-5.4,2-7.8,6.4-7.3c63.8-0.5,96.7-0.6,98.8-0.2c2.1,0.4,3.1,2.4,3.1,6l-0.4,39.3h19.6
		c5-0.3,7.1,2.8,6.2,9.2c-2.1,27.1-3.3,43-3.7,47.7C400.2,193.2,397.5,194,392.4,190.9z M258.4,86.4c-2.1-0.3-3.9-1-5.4-2.3
		c-1.5-1.8-2.2-4.1-1.9-6.9l1.9-3.9c3.9-1.5,7.7-3.2,11.6-5s7-4.6,9.3-8.4c2.4-3.8,5.1-6.8,8.2-9.1l4.6-0.4l3.9,1.9
		c1.5,1.8,2.2,4.2,1.9,7.1c-4.7,7.4-10.3,13.6-16.7,18.5C269.3,82.8,263.5,85.6,258.4,86.4z M316.7,130.7l-0.8-14.2
		c0.1-3.9,1.5-6.2,4.2-6.9l43.1,0.4l0.4-8.9l-77.8,0.4l1.2,29.3h29.7V130.7z M297.4,184.4c-3.6-0.4-5.4-2.8-5.4-7.3l-1.2-17.7
		c-0.3-4.9,0.9-7.4,3.4-7.5s22.2-0.3,59-0.4c1.8,0.8,3.1,2.1,3.9,4c0,13.9-0.1,22.2-0.3,25.1c-0.2,2.9-3,4.1-8.6,3.8L297.4,184.4
		L297.4,184.4z M344.8,173.2l1.2-10.4l-43.1,0.4l1.5,10H344.8z M362.9,131.4l0.4-10.4l-35.8-0.4l0.4,10.4L362.9,131.4z M382.7,82.9
		c-3.6-0.8-7.2-1.5-10.9-2.1c-3.7-0.6-7.1-3-10.3-6.9c-3.2-4-4.6-9.3-4-16c0.3-2.2,1-4,2.3-5.6c2.1-1.8,4.5-2.6,7.3-2.3l3.9,1.9
		c1.7,2.1,2.4,4.6,2.1,7.5c0.3,2.4,1.4,4.5,3.5,6.1c2.1,1.6,5.5,2.3,10.2,2.2c4.7-0.1,9,0.6,12.9,2.1c1.5,1.8,2.2,4.1,1.9,6.9
		l-1.9,3.9C394.8,82.9,389.1,83.7,382.7,82.9z"/>
</g>
<g>
	<path class="st0" d="M447.7,97.1c-2.1-0.3-3.9-1-5.4-2.3c-1.8-4.1-2.8-8.7-2.9-13.8c-0.1-5.1-0.3-9.6-0.6-13.5
		c-0.3-3.9,1.1-6.3,4.1-7.2s26.3-0.5,70,1.2l-0.8-5.8c0.3-2.1,1-3.9,2.3-5.4c1.8-1.5,4.1-2.2,6.9-1.9l3.9,1.9
		c2.1,3.3,3,7.1,2.7,11.2h69.5c5,0.1,6.9,3.6,5.8,10.4c-2.1,10.1-3.9,16.7-5.4,19.8c-1.8,1.5-4.1,2.2-6.9,1.9l-3.9-1.9
		c-1.3-1.8-2.1-3.9-2.3-6.4l1.5-8.9l-132.1-0.8l1.2,15.2l-1.9,3.9C451.6,96.1,449.7,96.9,447.7,97.1z M589.3,222.1
		c-5.9-1.5-11.2-4.6-15.8-9.2c-1.5-1.8-2.2-4.1-1.9-6.9l1.9-3.9c1.8-1.5,4.1-2.2,6.9-1.9l3.5,1.2c1.8-11.2,2.6-19.1,2.3-23.7
		l-129-0.8l0.4,45.2l-1.9,3.9c-1.8,1.5-4.1,2.2-6.9,1.9l-3.9-1.9c-2.1-4.9-3.1-11.3-3.1-19.3s-0.1-15.6-0.4-22.9
		c-0.3-7.3-0.3-12.5-0.2-15.7c0.1-3.1,1.5-4.9,4.2-5.3c2.7-0.4,10.5-0.7,23.3-1l-1.2-37c-0.1-5.4,2-7.8,6.4-7.3
		c63.8-0.5,96.7-0.6,98.8-0.2c2.1,0.4,3.1,2.4,3.1,6l-0.4,39.3H595c5-0.3,7.1,2.8,6.2,9.2c-2.1,27.1-3.3,43-3.7,47.7
		C597.2,224.3,594.5,225.1,589.3,222.1z M455.4,117.5c-2.1-0.3-3.9-1-5.4-2.3c-1.5-1.8-2.2-4.1-1.9-6.9l1.9-3.9
		c3.9-1.5,7.7-3.2,11.6-5s7-4.6,9.3-8.4c2.4-3.8,5.1-6.8,8.2-9.1l4.6-0.4l3.9,1.9c1.5,1.8,2.2,4.2,1.9,7.1
		c-4.7,7.4-10.3,13.6-16.7,18.5C466.3,113.9,460.5,116.8,455.4,117.5z M513.7,161.8l-0.8-14.2c0.1-3.9,1.5-6.2,4.2-6.9l43.1,0.4
		l0.4-8.9l-77.8,0.4l1.2,29.3h29.7V161.8z M494.4,215.5c-3.6-0.4-5.4-2.8-5.4-7.3l-1.2-17.7c-0.3-4.9,0.9-7.4,3.4-7.5
		s22.2-0.3,59-0.4c1.8,0.8,3.1,2.1,3.9,4c0,13.9-0.1,22.2-0.3,25.1s-3,4.1-8.6,3.8L494.4,215.5L494.4,215.5z M541.8,204.4L543,194
		l-43.1,0.4l1.5,10H541.8z M559.9,162.6l0.4-10.4l-35.8-0.4l0.4,10.4L559.9,162.6z M579.7,114.1c-3.6-0.8-7.2-1.5-10.9-2.1
		s-7.1-3-10.3-6.9c-3.2-4-4.6-9.3-4-16c0.3-2.2,1-4,2.3-5.6c2.1-1.8,4.5-2.6,7.3-2.3l3.9,1.9c1.7,2.1,2.4,4.6,2.1,7.5
		c0.3,2.4,1.4,4.5,3.5,6.1s5.5,2.3,10.2,2.2c4.7-0.1,9,0.6,12.9,2.1c1.5,1.8,2.2,4.1,1.9,6.9l-1.9,3.9
		C591.8,114.1,586.1,114.8,579.7,114.1z"/>
</g>
</svg>
